<?xml version="1.0" encoding="utf-8"?><!DOCTYPE svg PUBLIC "-//W3C//DTD SVG 1.1//EN" "http://www.w3.org/Graphics/SVG/1.1/DTD/svg11.dtd"><svg version="1.1" xmlns="http://www.w3.org/2000/svg" width="768" height="256" viewBox="0 0 768 256"><g transform="scale(0.64,0.64)"><g transform="translate(0,0)"><g transform="translate(0,0) scale(1,1)">
<path fill="#000000" d=" M 175.41 69.50 C 177.29 68.19 178.96 65.78 181.56 66.44 C 187.42 67.32 194.17 66.02 199.17 69.86 C 202.71 74.17 203.02 80.16 202.93 85.51 C 197.63 85.92 192.37 86.93 187.05 86.99 C 184.52 87.22 182.52 85.48 180.76 83.92 C 181.23 82.05 182.12 80.34 182.93 78.61 C 180.39 75.60 177.88 72.56 175.41 69.50 Z"/>
<path fill="#000000" d=" M 232.21 88.20 C 234.54 86.96 237.00 84.74 239.81 85.88 C 245.23 87.65 248.18 93.29 249.43 98.51 C 239.06 103.67 227.15 104.49 216.91 109.90 C 213.67 111.47 210.07 112.13 206.92 113.90 C 201.92 116.65 197.32 120.23 193.66 124.63 C 190.59 128.32 189.90 133.28 187.24 137.20 C 182.46 144.76 180.32 153.51 176.55 161.52 C 175.91 163.61 175.86 165.83 175.63 167.99 C 181.28 164.48 187.84 162.42 192.81 157.85 C 198.74 152.68 205.69 148.87 212.84 145.68 C 216.72 149.93 221.89 152.52 226.42 155.95 C 223.13 162.90 220.32 170.06 217.14 177.06 C 213.99 185.94 210.70 194.77 207.66 203.70 C 202.31 215.85 200.24 229.07 197.70 242.01 C 205.29 238.78 212.97 235.45 221.19 234.19 C 226.52 233.49 231.11 230.35 236.38 229.35 C 242.63 228.09 248.41 224.61 254.94 224.84 C 260.50 224.89 266.09 225.32 271.62 224.51 C 275.29 223.78 278.94 225.16 282.16 226.80 C 285.75 229.88 288.82 233.52 292.26 236.75 C 295.69 239.98 298.47 244.23 298.85 249.03 C 298.59 255.44 295.79 261.33 293.19 267.07 C 291.04 273.16 290.24 279.72 287.45 285.58 C 285.52 289.75 280.67 291.53 278.80 295.76 C 276.64 300.34 273.05 303.95 269.33 307.29 C 265.96 310.10 265.47 315.17 261.56 317.47 C 257.34 320.14 253.18 323.27 248.16 324.19 C 242.82 325.32 238.59 329.68 232.95 329.69 C 228.14 329.74 223.59 331.32 218.90 332.10 C 215.64 332.67 212.58 331.19 209.54 330.30 C 205.97 329.22 202.15 329.38 198.57 328.38 C 196.89 327.41 195.88 325.64 194.62 324.22 C 204.10 323.13 214.09 324.31 222.94 319.90 C 228.73 316.59 235.42 314.94 240.66 310.69 C 243.04 308.72 245.71 307.12 247.95 304.99 C 254.66 297.70 261.71 290.69 268.08 283.08 C 274.65 273.51 277.34 261.97 278.69 250.64 C 280.97 244.68 276.28 237.45 270.01 236.90 C 258.92 236.61 247.80 237.05 236.85 238.81 C 231.64 239.90 226.92 242.59 221.70 243.63 C 217.14 244.52 212.68 246.02 207.99 246.07 C 204.01 246.12 200.78 248.69 197.32 250.30 C 191.00 253.70 184.22 256.26 178.25 260.27 C 165.76 269.59 153.56 279.86 145.05 293.09 C 140.15 298.97 138.40 306.66 133.78 312.71 C 129.26 318.66 127.87 326.38 123.26 332.27 C 121.79 334.70 118.22 334.54 116.31 332.75 C 111.68 328.83 108.57 323.47 105.67 318.23 C 103.81 315.31 106.93 312.64 108.09 310.11 C 110.21 305.71 114.76 303.29 117.12 299.04 C 121.14 292.44 128.78 289.26 132.87 282.71 C 139.66 273.21 151.05 265.86 152.50 253.43 C 153.31 249.62 152.35 245.80 152.22 241.99 C 153.02 229.63 154.42 217.31 155.93 205.03 C 155.35 195.55 158.45 186.52 160.36 177.37 C 161.64 171.48 163.66 165.78 164.73 159.85 C 166.05 154.56 167.60 149.21 170.60 144.60 C 173.28 140.33 175.01 135.55 175.87 130.59 C 169.63 132.79 163.48 135.43 157.77 138.76 C 152.00 142.08 149.27 148.35 145.26 153.34 C 142.67 156.71 141.70 160.94 139.70 164.64 C 137.71 163.96 135.58 163.50 133.90 162.16 C 122.99 153.24 110.39 146.14 101.27 135.20 C 106.52 131.71 112.84 134.31 118.54 132.63 C 128.50 130.77 137.76 126.60 147.29 123.37 C 164.91 119.23 179.85 108.23 197.12 103.13 C 209.24 99.19 220.93 94.08 232.21 88.20 M 187.31 171.29 C 182.86 173.40 177.27 173.90 174.21 178.22 C 168.73 185.38 170.56 194.86 169.17 203.19 C 167.55 212.31 165.41 221.37 164.65 230.62 C 164.63 231.90 164.49 234.70 166.53 233.75 C 171.21 228.78 172.76 221.93 176.27 216.24 C 178.49 212.66 179.96 208.69 182.09 205.06 C 184.35 201.37 182.11 197.15 180.95 193.50 C 183.55 192.68 186.20 191.82 188.97 191.93 C 192.96 191.50 194.80 195.76 196.98 198.31 C 199.14 191.85 199.69 185.01 201.56 178.49 C 203.90 173.17 204.72 167.40 205.84 161.75 C 199.36 164.33 193.76 168.63 187.31 171.29 M 185.04 229.02 C 183.83 231.42 183.28 234.32 181.01 236.03 C 173.78 241.83 169.92 250.51 165.37 258.36 C 171.54 255.99 177.00 252.17 182.30 248.29 C 184.91 246.25 187.79 244.37 189.67 241.58 C 190.37 237.96 189.90 234.21 190.73 230.61 C 191.57 226.83 192.30 223.03 192.66 219.18 C 189.65 222.05 186.89 225.27 185.04 229.02 Z"/>
<path fill="#000000" d=" M 188.39 283.40 C 192.05 280.78 196.59 279.60 201.01 279.14 C 206.31 279.35 210.79 282.62 215.65 284.38 C 217.89 285.24 220.86 286.88 220.38 289.73 C 218.47 296.93 213.84 303.56 207.37 307.35 C 204.46 309.20 200.92 309.00 197.62 309.13 C 200.25 304.91 202.75 300.48 203.42 295.46 C 198.55 292.77 193.21 291.32 187.86 289.97 C 184.43 288.82 186.38 284.97 188.39 283.40 Z"/>
</g></g><g transform="translate(400,0)"><g transform="translate(0,0) scale(1,1)">
<path fill="#000000" d=" M 192.30 71.30 C 195.94 68.50 199.40 64.86 204.10 64.00 C 208.24 63.22 211.69 65.99 215.08 67.89 C 221.54 71.63 229.16 73.99 234.01 80.00 C 236.06 82.65 238.70 84.73 240.98 87.16 C 240.83 89.88 237.57 90.67 235.43 91.37 C 230.39 92.33 225.73 94.52 220.76 95.73 C 212.89 97.65 205.12 100.33 196.96 100.71 C 191.98 100.76 187.33 98.82 182.64 97.39 C 175.17 95.75 167.51 97.35 159.96 97.04 C 156.34 97.19 152.70 96.39 149.62 94.43 C 146.13 92.21 141.80 90.90 139.58 87.14 C 141.59 85.90 143.55 84.17 146.04 84.12 C 150.28 83.81 154.74 84.63 158.74 82.79 C 165.11 80.30 172.05 79.78 178.47 77.42 C 183.15 75.58 188.40 74.71 192.30 71.30 Z"/>
<path fill="#000000" d=" M 159.06 117.27 C 160.19 115.82 162.03 114.97 163.87 115.36 C 167.54 115.89 171.27 116.12 174.90 115.24 C 176.26 116.83 178.06 118.24 178.69 120.32 C 179.24 124.01 178.78 127.80 179.53 131.48 C 180.76 137.91 182.11 144.40 181.89 150.99 C 181.77 155.02 181.60 159.17 183.22 162.96 C 188.58 162.04 194.21 161.07 198.62 157.64 C 200.81 155.85 203.55 155.14 206.09 154.02 C 211.92 149.75 217.90 144.96 220.52 137.95 C 222.94 138.18 225.48 138.25 227.71 139.33 C 230.22 141.15 232.30 143.67 235.34 144.69 C 240.15 146.39 245.29 146.96 250.02 148.94 C 254.95 150.99 260.89 151.17 264.81 155.19 C 266.46 156.85 268.71 158.98 267.80 161.57 C 266.43 163.64 264.35 165.41 261.80 165.70 C 252.50 166.69 243.87 170.64 235.44 174.45 C 229.44 177.06 222.60 175.15 216.52 177.52 C 211.92 179.45 206.80 178.57 202.13 180.18 C 194.84 182.88 187.17 184.37 179.96 187.34 C 179.94 192.15 180.95 197.21 184.04 201.03 C 185.66 203.11 186.81 205.51 188.39 207.62 C 190.68 209.74 193.73 210.81 196.12 212.82 C 203.80 219.12 209.72 227.28 217.45 233.52 C 220.27 235.80 223.65 237.23 226.47 239.49 C 228.62 241.80 229.52 244.97 231.59 247.34 C 237.46 251.06 243.73 254.38 248.74 259.27 C 250.41 260.45 252.43 260.98 254.26 261.85 C 259.34 264.07 262.96 268.61 268.00 270.91 C 270.31 272.00 272.87 272.56 275.06 273.92 C 278.61 276.34 281.59 279.73 285.73 281.17 C 289.03 282.25 292.58 282.66 295.65 284.39 C 299.09 286.32 302.44 288.46 306.14 289.88 C 310.63 291.61 314.67 294.41 319.34 295.69 C 323.14 296.40 327.03 296.05 330.88 296.10 C 333.37 300.22 334.06 305.02 335.52 309.54 C 338.39 315.22 341.04 321.04 342.94 327.13 C 343.73 330.04 345.12 334.11 341.61 335.81 C 337.38 337.45 334.43 333.74 331.33 331.61 C 327.91 329.09 323.50 329.32 319.58 328.27 C 314.96 325.96 311.78 320.34 306.01 320.93 C 300.47 320.95 295.85 317.49 291.59 314.37 C 286.17 310.24 279.81 307.65 274.20 303.82 C 270.14 300.88 264.69 300.52 261.10 296.84 C 255.54 291.42 250.50 285.46 244.69 280.30 C 241.40 277.54 237.53 275.56 234.34 272.68 C 231.90 270.46 230.09 267.61 227.38 265.69 C 213.71 255.77 203.73 241.93 192.25 229.75 C 187.04 224.44 183.12 218.00 177.79 212.81 C 176.62 212.73 175.44 212.70 174.27 212.72 C 172.58 223.38 170.58 234.18 165.95 244.01 C 164.13 247.54 164.91 251.73 163.29 255.32 C 161.14 260.17 156.60 263.33 153.93 267.85 C 151.12 272.68 148.54 277.67 145.25 282.20 C 143.19 284.97 139.06 285.20 137.32 288.28 C 134.75 291.96 132.99 296.53 128.89 298.84 C 124.59 301.08 121.92 305.38 117.70 307.74 C 112.06 310.97 106.76 314.74 101.46 318.47 C 92.84 322.89 83.13 319.88 74.01 319.79 C 70.26 319.49 66.56 321.41 62.86 320.19 C 59.68 319.78 57.63 317.16 55.58 314.98 C 59.36 309.87 65.87 308.92 71.27 306.36 C 75.26 304.47 80.11 305.48 83.84 302.90 C 87.22 300.66 90.09 297.73 93.46 295.46 C 98.23 292.30 103.05 289.15 107.24 285.23 C 112.68 279.95 119.99 276.74 124.50 270.49 C 127.85 266.33 130.32 261.58 132.91 256.93 C 137.00 249.57 144.64 244.54 147.43 236.40 C 149.05 231.13 151.45 226.03 151.68 220.44 C 153.41 217.16 154.71 213.75 155.16 210.05 C 157.17 204.56 157.32 198.72 156.98 192.96 C 151.90 192.68 146.76 193.14 142.00 195.02 C 138.19 196.54 134.10 196.98 130.03 197.08 C 125.54 197.20 121.44 199.35 117.02 199.82 C 110.62 199.63 105.82 194.62 99.74 193.29 C 97.62 192.64 94.85 192.41 93.91 190.03 C 91.54 185.48 95.37 180.84 97.22 176.81 C 102.85 177.45 108.28 179.60 114.01 179.17 C 121.36 179.21 128.32 175.79 135.71 176.51 C 139.16 176.84 142.47 175.62 145.77 174.81 C 151.35 173.38 157.20 172.30 162.17 169.21 C 164.16 168.23 163.93 165.87 164.15 164.02 C 164.38 160.83 165.06 157.70 165.61 154.57 C 166.71 149.22 163.43 144.00 164.68 138.68 C 165.70 134.96 164.50 131.14 163.40 127.58 C 162.27 124.00 158.20 121.37 159.06 117.27 Z"/>
</g></g><g transform="translate(800,0)"><g transform="translate(0,0) scale(1,1)">
<path fill="#000000" d=" M 135.97 69.95 C 141.43 68.11 147.43 69.12 153.10 69.16 C 151.57 76.59 147.97 83.37 145.26 90.40 C 143.83 94.78 143.61 99.51 141.67 103.72 C 140.25 107.18 138.49 110.85 139.12 114.68 C 139.88 115.74 140.94 116.55 142.11 117.12 C 148.58 114.01 154.67 110.06 161.31 107.26 C 165.72 105.48 170.63 105.13 174.84 102.82 C 179.25 100.34 181.35 95.31 185.56 92.58 C 188.47 90.55 192.09 89.98 195.09 88.14 C 198.59 85.67 200.96 81.97 204.32 79.34 C 213.01 75.81 223.53 77.13 230.90 83.03 C 233.16 86.81 235.25 91.26 235.00 95.76 C 233.26 98.67 230.85 101.14 228.45 103.53 C 223.76 107.30 217.57 108.11 211.79 108.87 C 207.43 109.36 203.21 110.61 199.07 111.99 C 193.23 113.90 186.66 113.85 181.45 117.45 C 177.72 119.95 171.99 120.64 170.53 125.54 C 169.62 129.39 169.53 133.59 170.55 137.42 C 171.83 141.81 177.66 142.19 180.96 139.95 C 186.42 136.23 193.01 133.22 199.76 134.12 C 203.18 135.91 206.33 138.40 208.74 141.43 C 209.59 143.57 208.87 145.84 207.72 147.72 C 206.37 149.93 205.99 152.58 204.73 154.82 C 202.23 156.32 199.22 156.55 196.55 157.64 C 194.47 159.12 192.89 161.17 190.97 162.84 C 183.55 169.56 174.71 174.97 168.80 183.19 C 168.69 185.38 169.54 187.84 171.42 189.11 C 174.96 190.60 178.90 191.05 182.31 192.89 C 183.68 195.07 183.80 198.09 182.38 200.30 C 179.02 206.53 171.48 208.98 168.24 215.28 C 166.98 217.61 166.19 220.20 165.98 222.85 C 168.80 224.38 171.98 223.12 174.98 223.11 C 179.20 222.71 183.49 223.47 187.67 222.68 C 191.22 221.32 195.03 218.82 195.76 214.80 C 196.86 209.98 198.68 205.12 197.83 200.10 C 196.59 191.67 193.33 183.06 195.63 174.53 C 196.98 173.89 198.95 173.51 200.02 174.87 C 202.15 177.16 204.18 179.62 205.63 182.41 C 207.01 185.06 205.87 188.06 206.04 190.87 C 206.75 193.39 208.42 195.63 208.49 198.34 C 208.41 200.77 210.60 202.84 212.94 203.02 C 217.84 199.91 222.60 196.57 227.56 193.56 C 230.40 190.27 232.01 186.06 234.52 182.51 C 236.55 178.39 233.78 174.40 231.40 171.19 C 233.49 168.65 236.21 166.44 237.24 163.19 C 239.83 156.08 238.82 148.41 239.06 141.00 C 238.98 137.99 239.41 134.77 237.98 131.98 C 236.73 129.07 234.70 126.29 234.88 122.98 C 234.91 120.92 234.73 117.82 237.27 117.18 C 242.14 116.28 247.25 117.96 251.22 120.78 C 253.55 122.36 254.14 125.30 254.04 127.94 C 253.97 139.65 254.00 151.36 254.03 163.07 C 254.16 167.15 251.89 170.79 251.57 174.80 C 252.76 177.25 255.53 178.42 258.07 178.89 C 264.07 177.40 269.61 173.86 275.99 173.97 C 280.29 174.11 285.72 173.70 288.68 177.46 C 290.70 179.82 293.14 182.10 293.99 185.18 C 294.78 188.78 291.85 191.53 290.71 194.67 C 288.53 200.47 287.22 206.67 284.08 212.06 C 277.33 221.88 273.69 233.73 265.38 242.47 C 258.62 250.41 249.33 255.75 242.75 263.86 C 240.85 265.67 242.82 268.28 244.16 269.80 C 247.13 273.31 252.17 272.75 256.23 273.80 C 259.93 274.23 263.27 276.80 267.08 276.17 C 269.86 275.59 272.22 277.78 275.00 277.63 C 280.52 277.69 286.08 278.03 291.38 279.72 C 298.22 281.94 305.55 281.64 312.43 283.71 C 316.82 285.13 322.03 283.10 325.89 286.23 C 326.24 287.72 324.77 288.89 324.01 290.01 C 316.01 296.65 305.87 299.62 296.36 303.39 C 292.30 304.49 288.14 305.29 284.38 307.28 C 279.08 308.87 273.48 309.27 268.01 309.99 C 261.44 310.98 255.67 307.21 249.67 305.28 C 244.46 303.60 240.59 299.54 235.75 297.18 C 232.31 295.50 230.20 292.18 227.39 289.73 C 224.28 286.82 220.61 284.31 218.47 280.53 C 216.91 277.02 216.68 272.91 214.13 269.86 C 211.18 266.23 208.67 262.22 207.25 257.73 C 206.41 255.63 205.73 252.12 202.75 252.54 C 201.20 254.87 199.57 257.25 198.71 259.93 C 198.96 261.81 200.26 263.65 199.52 265.57 C 197.44 271.98 196.99 278.88 193.91 284.96 C 191.46 289.51 191.07 294.86 188.35 299.28 C 185.19 304.83 182.17 310.46 178.77 315.87 C 176.87 319.22 173.33 321.05 170.62 323.65 C 166.83 327.15 162.48 330.80 157.06 331.05 C 154.10 331.11 150.82 331.50 148.22 329.77 C 145.56 328.19 143.23 326.14 140.87 324.16 C 135.41 319.49 132.04 313.00 127.25 307.74 C 123.90 303.64 117.87 304.81 113.27 305.31 C 109.84 307.58 106.73 310.44 102.76 311.79 C 98.24 313.39 94.75 317.29 89.84 317.84 C 87.07 318.12 84.16 318.48 81.44 317.72 C 78.27 314.20 74.35 310.18 74.92 305.02 C 74.82 299.15 79.84 295.14 84.28 292.21 C 90.82 288.29 98.33 286.38 105.63 284.41 C 109.53 282.81 113.07 280.33 117.23 279.39 C 120.10 278.88 121.08 275.76 122.90 273.88 C 124.96 271.23 128.40 268.15 126.64 264.46 C 123.09 258.48 118.50 253.19 114.41 247.58 C 112.68 245.21 112.36 242.22 111.39 239.53 C 109.91 236.80 106.74 235.07 106.23 231.83 C 105.55 228.05 104.60 224.33 103.49 220.65 C 102.23 215.09 102.24 209.35 101.36 203.73 C 100.14 195.72 101.97 187.69 104.05 179.98 C 104.89 177.36 104.02 174.53 104.88 171.91 C 105.80 169.14 106.01 166.22 106.48 163.36 C 107.03 160.33 109.09 157.86 109.83 154.90 C 110.30 151.02 109.71 147.08 110.28 143.20 C 110.97 139.13 114.02 136.01 114.97 132.03 C 116.59 125.49 119.86 119.47 120.82 112.75 C 121.97 105.86 126.59 100.11 127.29 93.12 C 128.05 87.67 132.50 83.49 132.81 77.93 C 133.11 75.05 132.56 71.15 135.97 69.95 M 149.86 133.76 C 145.52 138.26 143.37 144.33 140.97 149.98 C 140.21 152.18 138.71 155.32 141.28 156.94 C 146.26 156.61 152.85 156.53 155.58 151.56 C 156.82 146.17 155.29 140.57 154.80 135.15 C 154.93 132.51 151.24 131.96 149.86 133.76 M 145.68 168.66 C 140.48 170.95 134.77 173.86 132.45 179.40 C 130.09 185.23 130.61 191.73 130.91 197.88 C 134.78 196.93 137.96 194.27 139.66 190.68 C 142.58 185.16 146.67 180.42 150.73 175.72 C 152.25 173.97 153.65 171.75 152.92 169.33 C 151.26 167.11 147.92 167.84 145.68 168.66 M 255.60 195.62 C 249.39 203.33 250.46 213.72 247.68 222.71 C 247.26 224.65 246.30 226.76 247.36 228.67 C 248.85 229.03 250.86 229.49 251.88 227.97 C 255.65 223.20 259.26 218.20 261.55 212.54 C 262.77 209.32 265.61 207.23 267.62 204.55 C 268.43 201.92 268.18 199.05 267.73 196.37 C 263.91 195.05 259.36 193.00 255.60 195.62 M 220.53 210.48 C 216.84 213.15 213.04 216.51 212.10 221.19 C 211.31 225.54 213.62 230.55 217.94 232.07 C 220.51 233.05 223.55 234.83 226.26 233.30 C 227.64 229.90 226.54 225.94 227.54 222.39 C 228.73 218.05 229.59 213.54 228.88 209.04 C 226.05 208.80 222.91 208.66 220.53 210.48 M 134.42 218.30 C 133.39 224.69 134.08 231.79 138.30 236.96 C 140.45 237.53 142.03 235.62 143.54 234.43 C 146.76 231.28 149.62 227.61 151.28 223.39 C 152.09 221.53 150.44 219.77 149.63 218.22 C 144.59 217.62 139.46 217.81 134.42 218.30 M 170.40 244.41 C 164.37 246.40 160.77 252.21 158.94 257.98 C 156.65 265.91 146.89 267.25 143.05 274.02 C 141.07 277.67 139.16 281.35 136.85 284.81 C 135.91 286.52 134.24 288.48 135.34 290.52 C 140.80 297.23 151.25 299.19 158.71 294.67 C 166.00 290.58 169.29 282.43 173.69 275.75 C 176.80 271.57 175.87 265.92 178.56 261.55 C 181.24 257.08 181.87 251.48 180.68 246.48 C 177.68 244.55 173.95 243.04 170.40 244.41 M 115.26 288.26 C 115.79 288.79 115.79 288.79 115.26 288.26 Z"/>
</g></g></g></svg>